<svg xmlns="http://www.w3.org/2000/svg" viewBox="0 0 1200 1500" width="1200" height="1500">
  <defs>
    <filter id="grain-interior-with-lemons">
      <feTurbulence type="fractalNoise" baseFrequency="0.85" numOctaves="2" seed="28" result="noise" />
      <feColorMatrix in="noise" type="matrix" values="0 0 0 0 0  0 0 0 0 0  0 0 0 0 0  0 0 0 0.9 0" />
    </filter>
  </defs>
  <rect width="1200" height="1500" fill="#232220" />
  <path d="M 842.1 497.1 Q 789.4 657.4 759.4 767.6 Q 678.0 807.1 487.2 781.9 Q 408.1 785.1 228.2 858.7 Q 157.4 691.2 148.4 602.1 Q 97.9 517.0 13.9 343.1 Q 138.9 337.8 284.4 232.8 Q 366.7 189.9 494.3 171.9 Q 669.9 189.0 764.2 222.5 Q 769.0 410.9 842.1 497.1 Z" fill="#c98b7a" opacity="0.55" style="mix-blend-mode:screen" /><path d="M 994.2 473.6 Q 939.4 686.5 764.0 917.8 Q 521.6 835.8 326.3 839.5 Q 146.0 723.0 32.6 655.3 Q 21.4 449.8 -122.4 217.4 Q 48.4 101.6 310.3 38.0 Q 430.4 125.5 659.6 160.4 Q 759.0 263.1 994.2 473.6 Z" fill="#8a3b2b" opacity="0.45" style="mix-blend-mode:screen" /><path d="M 1032.0 1182.6 Q 1078.1 1354.4 999.0 1549.7 Q 753.0 1544.9 632.1 1582.7 Q 483.2 1666.6 294.6 1644.9 Q 148.1 1457.9 -15.2 1392.5 Q -12.0 1248.8 -50.7 959.8 Q 80.1 941.4 317.4 759.8 Q 558.2 618.0 664.6 597.9 Q 847.4 707.0 1013.4 803.4 Q 1013.3 1045.1 1032.0 1182.6 Z" fill="#3a4a3f" opacity="0.35" style="mix-blend-mode:screen" />
  <text x="50%" y="58%" text-anchor="middle" font-family="'Playfair Display', Georgia, serif" font-size="930" fill="rgba(247,245,240,0.14)" font-style="italic">I</text>
  <rect width="1200" height="1500" filter="url(#grain-interior-with-lemons)" opacity="0.12" />
</svg>